<?xml version="1.0" encoding="utf-8"?>
<svg version="1.1" id="Layer_1" xmlns="http://www.w3.org/2000/svg" xmlns:xlink="http://www.w3.org/1999/xlink" x="0px"
     y="0px"
     viewBox="0 0 75.8 74.9" enable-background="new 0 0 75.8 74.9" xml:space="preserve">
<g id="XMLID_1442_">
	<path id="XMLID_1446_" fill="currentColor" d="M38.4,72.8L38.4,72.8C18.6,72.8,2.5,56.8,2.5,37l0,0c0-19.8,16.1-35.9,35.9-35.9l0,0
		c19.8,0,35.9,16.1,35.9,35.9l0,0C74.2,56.8,58.2,72.8,38.4,72.8z"/>
    <g id="XMLID_1443_">
		<path id="XMLID_1445_" fill="#FFFFFF" d="M42.8,36H28.4l0,4.2h9.8c-1.2,5.1-4.7,8.2-9.5,8.2c-6.3,0-11.4-5.1-11.4-11.4
			s5.1-11.4,11.4-11.4c3,0,5.7,1.2,7.7,3l3.2-2.8c-2.8-2.8-6.7-4.5-10.9-4.5c-8.6,0-15.6,7-15.6,15.6c0,8.6,7,15.6,15.6,15.6
			c8.3,0,14.2-6.3,14.2-14.9L42.8,36z"/>
        <polygon id="XMLID_1444_" fill="#FFFFFF" points="63.7,36.2 57.7,36.2 57.7,30.2 53.9,30.2 53.9,36.2 47.9,36.2 47.9,40 53.9,40
			53.9,46 57.7,46 57.7,40 63.7,40 		"/>
	</g>
</g>
</svg>
